<svg version="1.1" viewBox="0.0 0.0 206.91601049868765 191.97900262467192" fill="none" stroke="none" stroke-linecap="square" stroke-miterlimit="10" xmlns:xlink="http://www.w3.org/1999/xlink" xmlns="http://www.w3.org/2000/svg"><clipPath id="p.0"><path d="m0 0l206.91602 0l0 191.979l-206.91602 0l0 -191.979z" clip-rule="nonzero"/></clipPath><g clip-path="url(#p.0)"><path fill="#000000" fill-opacity="0.0" d="m0 0l206.91602 0l0 191.979l-206.91602 0z" fill-rule="evenodd"/><path fill="#ffffff" d="m0 0l206.89764 0l0 192.53543l-206.89764 0z" fill-rule="evenodd"/><path fill="#000000" fill-opacity="0.0" d="m41.133858 72.19948l0 0c0 -34.415604 27.89936 -62.314964 62.314964 -62.314964l0 0c16.526955 0 32.377 6.5653067 44.063324 18.251629c11.686325 11.686319 18.251633 27.536375 18.251633 44.06333l0 0c0 34.415596 -27.899353 62.314957 -62.314957 62.314957l0 0c-34.415604 0 -62.314964 -27.89936 -62.314964 -62.314957z" fill-rule="evenodd"/><path stroke="#999999" stroke-width="16.0" stroke-linejoin="round" stroke-linecap="butt" d="m41.133858 72.19948l0 0c0 -34.415604 27.89936 -62.314964 62.314964 -62.314964l0 0c16.526955 0 32.377 6.5653067 44.063324 18.251629c11.686325 11.686319 18.251633 27.536375 18.251633 44.06333l0 0c0 34.415596 -27.899353 62.314957 -62.314957 62.314957l0 0c-34.415604 0 -62.314964 -27.89936 -62.314964 -62.314957z" fill-rule="evenodd"/><path fill="#000000" fill-opacity="0.0" d="m63.95013 7.6509185l85.480316 0l0 134.77165l-85.480316 0z" fill-rule="evenodd"/><path fill="#0000ff" d="m92.52826 103.82654q0 2.109375 -1.390625 3.546875q-1.390625 1.4375 -3.59375 1.4375q-2.109375 0 -3.5625 -1.4375q-1.4375 -1.4375 -1.4375 -3.546875l0 -65.0q0 -2.203125 1.4375 -3.59375q1.453125 -1.390625 3.5625 -1.390625l19.203125 0q7.09375 0 12.703125 3.171875q5.625 3.15625 8.75 8.828125q3.125 5.65625 3.125 12.859375q0 7.0 -3.125 12.484375q-3.125 5.46875 -8.75 8.546875q-5.609375 3.0625 -12.703125 3.0625l-14.21875 0l0 21.03125zm14.21875 -30.25q6.515625 0 10.734375 -4.171875q4.234375 -4.171875 4.234375 -10.703125q0 -6.8125 -4.234375 -11.234375q-4.21875 -4.421875 -10.734375 -4.421875l-14.21875 0l0 30.53125l14.21875 0z" fill-rule="nonzero"/><path fill="#000000" fill-opacity="0.0" d="m-5.0209975 130.45932l209.76378 0l0 58.330704l-209.76378 0z" fill-rule="evenodd"/><path fill="#0000ff" d="m12.135253 175.78119q0 0.875 -0.578125 1.484375q-0.578125 0.59375 -1.5 0.59375q-0.875 0 -1.484375 -0.59375q-0.5937505 -0.609375 -0.5937505 -1.484375l0 -27.078125q0 -0.921875 0.5937505 -1.5q0.609375 -0.578125 1.484375 -0.578125l7.999999 0q2.96875 0 5.296875 1.328125q2.34375 1.3125 3.640625 3.671875q1.296875 2.359375 1.296875 5.359375q0 2.921875 -1.296875 5.203125q-1.296875 2.265625 -3.640625 3.546875q-2.328125 1.28125 -5.296875 1.28125l-5.921874 0l0 8.765625zm5.921874 -12.609375q2.71875 0 4.46875 -1.734375q1.765625 -1.734375 1.765625 -4.453125q0 -2.84375 -1.765625 -4.6875q-1.75 -1.84375 -4.46875 -1.84375l-5.921874 0l0 12.71875l5.921874 0zm24.357485 -7.359375q3.171875 0 5.671875 1.421875q2.5 1.421875 3.90625 3.953125q1.421875 2.515625 1.421875 5.75q0 3.203125 -1.40625 5.71875q-1.390625 2.515625 -3.890625 3.9375q-2.5 1.421875 -5.703125 1.421875q-3.203125 0 -5.71875 -1.421875q-2.515625 -1.421875 -3.921875 -3.9375q-1.3906269 -2.515625 -1.3906269 -5.71875q0 -3.234375 1.3906269 -5.75q1.40625 -2.53125 3.921875 -3.953125q2.515625 -1.421875 5.71875 -1.421875zm0 3.609375q-2.03125 0 -3.65625 0.96875q-1.625 0.953125 -2.546875 2.671875q-0.90625 1.71875 -0.90625 3.875q0 2.15625 0.90625 3.859375q0.921875 1.703125 2.546875 2.671875q1.625 0.953125 3.65625 0.953125q2.046875 0 3.65625 -0.953125q1.625 -0.96875 2.515625 -2.671875q0.90625 -1.703125 0.90625 -3.859375q0 -2.15625 -0.90625 -3.875q-0.890625 -1.71875 -2.515625 -2.671875q-1.609375 -0.96875 -3.65625 -0.96875zm16.28122 -10.796875q0 -0.890625 0.5625 -1.4375q0.5625 -0.5625 1.4375 -0.5625q0.890625 0 1.4375 0.5625q0.5625 0.546875 0.5625 1.4375l0 21.828125q0 1.484375 0.5625 2.453125q0.5625 0.953125 1.4375 0.953125l1.0 0q0.796875 0 1.296875 0.5625q0.5 0.5625 0.5 1.4375q0 0.875 -0.765625 1.4375q-0.75 0.5625 -1.953125 0.5625l-0.078125 0q-1.71875 0 -3.109375 -0.9375q-1.375 -0.9375 -2.140625 -2.640625q-0.75 -1.703125 -0.75 -3.828125l0 -21.828125zm29.51561 7.546875q1.25 0.484375 1.25 1.5625q0 0.40625 -0.25 0.96875l-12.234375 27.515625q-0.484375 1.234375 -1.5625 1.234375q-0.390625 0 -0.953125 -0.234375q-1.203125 -0.515625 -1.203125 -1.5625q0 -0.484375 0.234375 -0.953125l4.0 -9.0l-9.0 -17.078125q-0.1875 -0.359375 -0.1875 -0.84375q0 -0.515625 0.3125 -0.953125q0.328125 -0.453125 0.84375 -0.6875q0.359375 -0.15625 0.796875 -0.15625q1.125 0 1.6875 1.109375l7.3125 14.5625l6.4375 -14.515625q0.515625 -1.15625 1.5625 -1.15625q0.515625 0 0.953125 0.1875zm30.967468 -9.953125q3.046875 0 5.265625 0.796875q2.21875 0.796875 4.5 2.640625q0.46875 0.359375 0.625 0.75q0.171875 0.375 0.171875 0.890625q0 0.796875 -0.578125 1.328125q-0.578125 0.515625 -1.34375 0.515625q-0.765625 0 -1.40625 -0.515625q-1.640625 -1.40625 -3.203125 -2.015625q-1.546875 -0.625 -4.03125 -0.625q-3.125 0 -5.75 1.640625q-2.609375 1.640625 -4.15625 4.46875q-1.53125 2.8125 -1.53125 6.125q0 3.359375 1.53125 6.15625q1.546875 2.796875 4.15625 4.4375q2.625 1.640625 5.75 1.640625q3.84375 0 7.359375 -2.640625q0.6875 -0.46875 1.328125 -0.46875q0.75 0 1.25 0.546875q0.5 0.53125 0.5 1.40625q0 0.84375 -0.640625 1.484375q-4.3125 3.484375 -9.796875 3.484375q-4.28125 0 -7.828125 -2.125q-3.53125 -2.125 -5.578125 -5.796875q-2.03125 -3.6875 -2.03125 -8.125q0 -4.40625 2.03125 -8.0625q2.046875 -3.65625 5.578125 -5.796875q3.546875 -2.140625 7.828125 -2.140625zm26.595596 9.59375q3.078125 0 5.578125 1.46875q2.5 1.453125 3.953125 4.0q1.46875 2.53125 1.46875 5.65625l0 8.921875q0 0.875 -0.578125 1.46875q-0.578125 0.578125 -1.453125 0.578125q-0.890625 0 -1.46875 -0.578125q-0.578125 -0.59375 -0.578125 -1.46875l0 -1.484375q-1.390625 1.71875 -3.390625 2.6875q-2.0 0.953125 -4.328125 0.953125q-2.875 0 -5.21875 -1.4375q-2.34375 -1.4375 -3.6875 -3.96875q-1.328125 -2.546875 -1.328125 -5.671875q0 -3.125 1.4375 -5.65625q1.4375 -2.546875 3.96875 -4.0q2.546875 -1.46875 5.625 -1.46875zm0 18.609375q2.0 0 3.625 -0.984375q1.625 -0.984375 2.53125 -2.671875q0.921875 -1.703125 0.921875 -3.828125q0 -2.125 -0.921875 -3.84375q-0.90625 -1.71875 -2.53125 -2.6875q-1.625 -0.984375 -3.625 -0.984375q-2.0 0 -3.625 0.984375q-1.609375 0.96875 -2.546875 2.6875q-0.9375 1.71875 -0.9375 3.84375q0 2.125 0.9375 3.828125q0.9375 1.6875 2.546875 2.671875q1.625 0.984375 3.625 0.984375zm16.28122 -25.796875q0 -0.890625 0.5625 -1.4375q0.5625 -0.5625 1.4375 -0.5625q0.890625 0 1.4375 0.5625q0.5625 0.546875 0.5625 1.4375l0 21.828125q0 1.484375 0.5625 2.453125q0.5625 0.953125 1.4375 0.953125l1.0 0q0.796875 0 1.296875 0.5625q0.5 0.5625 0.5 1.4375q0 0.875 -0.765625 1.4375q-0.75 0.5625 -1.953125 0.5625l-0.078125 0q-1.71875 0 -3.109375 -0.9375q-1.375 -0.9375 -2.140625 -2.640625q-0.75 -1.703125 -0.75 -3.828125l0 -21.828125zm22.51561 7.1875q4.734375 0 7.84375 3.609375q0.40625 0.4375 0.40625 1.03125q0 0.890625 -0.875 1.484375q-0.40625 0.28125 -0.921875 0.28125q-0.921875 0 -1.5625 -0.71875q-1.0 -1.078125 -2.1875 -1.578125q-1.171875 -0.5 -2.703125 -0.5q-3.078125 0 -5.0 2.0625q-1.90625 2.0625 -1.90625 5.453125q0 2.15625 0.890625 3.859375q0.90625 1.703125 2.515625 2.671875q1.625 0.953125 3.703125 0.953125q2.71875 0 4.40625 -1.40625q0.765625 -0.5625 1.484375 -0.5625q0.546875 0 1.03125 0.359375q0.765625 0.640625 0.765625 1.453125q0 0.59375 -0.484375 1.078125q-2.875 2.671875 -7.203125 2.671875q-3.15625 0 -5.6875 -1.4375q-2.515625 -1.4375 -3.9375 -3.96875q-1.40625 -2.546875 -1.40625 -5.671875q0 -3.203125 1.375 -5.734375q1.375 -2.546875 3.859375 -3.96875q2.484375 -1.421875 5.59375 -1.421875z" fill-rule="nonzero"/></g></svg>